<svg id="Layer_1" xmlns="http://www.w3.org/2000/svg" viewBox="0 0 598.8 134.8"><style>.st0{fill:#ff8d90}.st1{opacity:.5}.st2{fill:#fff}.st3{opacity:.75}.st4{fill:#19354c}.st5{fill:#f6a3a9}.st6{fill:#365e7f}.st7{fill:#f9babf}.st8{fill:#f48c95}.st9{fill:#ffbdbb}.st10{fill:#ffa5a5}.st11,.st12,.st13{fill:none;stroke:#ffbdbb;stroke-width:12;stroke-linejoin:round;stroke-miterlimit:10}.st12,.st13{stroke:#ff8d90}.st13{stroke:#ffa5a5}.st14{fill:#003a5d}.st15{fill:none}.st16{fill:#f1c0d2}.st17{fill:#f38089}.st18{fill:#f9b5a1}.st19{fill:#ca92b9}.st20{fill:#003146}.st21{fill:#003349}.st22{fill:#395d76}.st23{fill:#fab89d}.st24{fill:#d090dd}.st25{fill:#ffbba5}.st26{fill:#173347}.st27{fill:#355c7d}.st28{fill:#ff8189}.st29{fill:#cf91b6}</style><path class="st5" d="M122.9 18.3c-.5-.7-1.3-1.2-1.5-1.3l-15.6-7.1c-3.5-1.6-7.6-1.5-11 .4L63 27.7 31.3 10.3c-3.5-1.9-7.6-2.1-11.3-.4l-15.3 7s-1 .5-1.6 1.4c-.4.5-.6 1-.6 1.7v45.5c0 4.6 2.5 8.9 6.5 11.1l30.7 16.9 18.7 10.3c1.6.8 3.2 1.1 4.5 1 2.7 0 4.6-1.1 5-1.3l18.2-10 31-17.1c3.9-2.1 6.3-6.2 6.3-10.7V19.8c0-.6-.2-1.1-.5-1.5z"/><path class="st9" d="M121.3 16.9l-15.6-7.1c-3.5-1.6-7.6-1.5-11 .4L63 27.7 31.3 10.3c-3.5-1.9-7.6-2.1-11.3-.4l-15.3 7s-1 .5-1.6 1.4l59.9 33 59.9-33c-.6-.7-1.3-1.2-1.6-1.4z"/><path class="st0" d="M63 51.3l-59.9-33c-.4.5-.6 1-.6 1.7v45.5c0 4.6 2.5 8.9 6.5 11.1l30.7 16.9 18.7 10.3c1.6.8 3.2 1.1 4.5 1V51.3z"/><path class="st10" d="M122.9 18.3L63 51.3v53.6c2.7 0 4.6-1.1 5-1.3l18.2-10 31-17.1c3.9-2.1 6.3-6.2 6.3-10.7v-46c-.1-.6-.3-1.1-.6-1.5z"/><path class="st14" d="M206.5 39.3c5.4-5.9 13-8.9 22.9-8.9 9.8 0 17.5 3 22.9 8.9 5.4 5.9 8.1 14.8 8.1 26.6s-2.7 20.7-8.1 26.6c-5.4 6-13 8.9-22.9 8.9-9.7 0-17.3-3-22.8-8.9-5.5-6-8.2-14.8-8.2-26.6-.1-11.8 2.6-20.7 8.1-26.6zm22.8 53.6c14.3 0 21.4-9 21.4-27 0-17.9-7.1-26.9-21.4-26.9-14.3 0-21.4 9-21.4 26.9 0 18 7.2 27 21.4 27zM295.6 100.7c-2.1 0-3.5-1-4.4-3l-25.1-59.6c-.3-.9-.4-1.6-.4-2.1 0-1.4.4-2.5 1.3-3.4.9-.9 2-1.3 3.4-1.3 2.2 0 3.6 1 4.4 3.1l20.8 50.9 20.8-50.9c.8-2.1 2.3-3.1 4.4-3.1 1.4 0 2.5.4 3.4 1.3.9.9 1.3 2 1.3 3.4 0 .5-.1 1.2-.4 2.1L300 97.7c-.9 2-2.3 3-4.4 3zM342.1 20.2c-3.7 0-5.6-1.9-5.6-5.6 0-3.9 1.9-5.9 5.6-5.9s5.6 2 5.6 5.9c0 3.8-1.9 5.6-5.6 5.6zm4.7 15.9V96c0 1.4-.4 2.5-1.3 3.4-.9.9-2 1.3-3.4 1.3s-2.5-.4-3.4-1.3c-.9-.9-1.3-2-1.3-3.4V36.1c0-1.4.4-2.5 1.3-3.4.9-.9 2-1.3 3.4-1.3s2.5.4 3.4 1.3c.9.8 1.3 2 1.3 3.4zM395.1 30.4c18.1 0 27.2 8.7 27.2 26.1V96c0 1.4-.4 2.5-1.3 3.4-.9.9-2 1.3-3.4 1.3s-2.5-.4-3.4-1.3c-.9-.9-1.3-2-1.3-3.4V58.5c0-6.4-1.3-11.3-3.8-14.6-2.6-3.3-7.2-5-13.9-5-13.1 0-19.6 6.9-19.6 20.7V96c0 1.4-.5 2.5-1.4 3.4-.9.9-2 1.3-3.3 1.3-1.3 0-2.4-.4-3.3-1.3-.9-.9-1.4-2-1.4-3.4V36.1c0-1.4.5-2.5 1.4-3.4.9-.9 2-1.3 3.3-1.3 1.3 0 2.4.4 3.3 1.3.9.9 1.4 2 1.4 3.4v4.7c1.5-3 4-5.4 7.5-7.4 3.3-2 7.3-3 12-3zM465.3 120.3c6.3 0 11.3-1.6 15.1-4.9 3.7-3.2 5.6-8.1 5.6-14.6v-8.4c-4.6 6-11.3 9-19.9 9-9.8 0-17.4-2.9-22.7-8.8-5.3-5.9-7.9-14.7-7.9-26.6 0-11.9 2.6-20.8 7.9-26.7 5.3-5.9 12.8-8.9 22.7-8.9 8.8 0 15.9 2.5 21.3 7.5 5.5 5 8.2 12.2 8.2 21.7v41.2c0 9.5-2.8 16.7-8.5 21.3-5.7 4.7-12.9 7-21.8 7-10.8 0-19-3.4-24.6-10.2-.6-.8-.9-1.7-.9-2.7 0-1.3.4-2.4 1.3-3.2.9-.9 2-1.3 3.2-1.3 1.3 0 2.5.5 3.5 1.6 4.7 4.7 10.5 7 17.5 7zM486 80.9V59.7c0-6.7-1.9-11.8-5.6-15.3-3.7-3.5-8.5-5.3-14.3-5.3-14.1 0-21.1 9-21.1 27C445 84 452 93 466.1 93c4.1 0 7.8-1 11.1-3s5.6-4 6.9-6l1.9-3.1zM511.2 5.5c.9-.9 2-1.4 3.3-1.4 1.3 0 2.4.5 3.3 1.4.9.9 1.4 2 1.4 3.3v74.6c0 5.6 2 8.4 5.9 8.4 1.2 0 2.2.4 3.1 1.3.9.8 1.3 1.9 1.3 3.2 0 1.3-.4 2.3-1.3 3.2-.9.8-1.9 1.3-3.1 1.3-10.2 0-15.3-5.8-15.3-17.3V8.8c0-1.3.4-2.4 1.4-3.3zM173 5.5c.9-.9 2-1.4 3.3-1.4 1.3 0 2.4.5 3.3 1.4.9.9 1.4 2 1.4 3.3v74.6c0 5.6 2 8.4 5.9 8.4 1.2 0 2.2.4 3.1 1.3.9.8 1.3 1.9 1.3 3.2 0 1.3-.4 2.3-1.3 3.2-.9.8-1.9 1.3-3.1 1.3-10.2 0-15.3-5.8-15.3-17.3V8.8c0-1.3.5-2.4 1.4-3.3zM536.9 120.3c2.6 0 4.8-.4 6.8-1.2 2-.8 3.6-1.7 4.8-2.7 1.2-1 2.6-2.7 4-5.2s2.5-4.6 3.2-6.2c.7-1.6 1.9-4.4 3.5-8.3l-24.6-58.6c-.3-.9-.4-1.6-.4-2.1 0-1.4.4-2.5 1.3-3.4.9-.9 2-1.3 3.4-1.3 2.2 0 3.6 1 4.4 3.1l20.8 50.9 20.8-50.9c.8-2.1 2.3-3.1 4.4-3.1 1.4 0 2.5.4 3.4 1.3.9.9 1.3 2 1.3 3.4 0 .5-.1 1.2-.4 2.1l-29.1 69.2c-3.1 7.5-6.8 13-11.1 16.5-4.2 3.5-9.7 5.3-16.5 5.3-1.3 0-2.3-.4-3.2-1.3-.8-.8-1.3-1.9-1.3-3.2 0-1.3.4-2.3 1.3-3.2.9-.7 1.9-1.1 3.2-1.1z"/></svg>