<svg id="SCENTSY_LOGO" data-name="SCENTSY LOGO" xmlns="http://www.w3.org/2000/svg" viewBox="0 0 217.96 74.42"><defs><style>.cls-1{fill:#5a3160;}</style></defs><title>Artboard 1</title><path class="cls-1" d="M98.61,22.26a.39.39,0,0,0,.15.37.38.38,0,0,0,.41,0l7-3.8,6.95,3.8a.37.37,0,0,0,.18,0,.36.36,0,0,0,.22-.07.37.37,0,0,0,.15-.37l-1.47-7.79L117.91,9a.37.37,0,0,0,.1-.4.37.37,0,0,0-.31-.25l-7.85-1L106.46.22a.37.37,0,0,0-.34-.22.36.36,0,0,0-.34.22l-3.39,7.16-7.86,1a.37.37,0,0,0-.31.25.37.37,0,0,0,.1.4l5.76,5.43Z"/><path class="cls-1" d="M75.47,19.75l-.78,4.16a.18.18,0,0,0,.08.2.2.2,0,0,0,.21,0l3.71-2,3.71,2a.19.19,0,0,0,.1,0,.28.28,0,0,0,.12,0,.22.22,0,0,0,.08-.2l-.79-4.16L85,16.85a.2.2,0,0,0,.06-.21.22.22,0,0,0-.17-.14L80.68,16l-1.81-3.82a.2.2,0,0,0-.36,0L76.7,16l-4.19.54a.21.21,0,0,0-.17.14.22.22,0,0,0,0,.21Z"/><path class="cls-1" d="M137.25,24.12a.19.19,0,0,0,.1,0,.28.28,0,0,0,.12,0,.22.22,0,0,0,.08-.2l-.79-4.16,3.08-2.9a.18.18,0,0,0,0-.21.21.21,0,0,0-.16-.14l-4.2-.54-1.81-3.82a.2.2,0,0,0-.36,0L131.55,16l-4.2.54a.21.21,0,0,0-.16.14.18.18,0,0,0,0,.21l3.08,2.9-.79,4.16a.2.2,0,0,0,.3.21l3.71-2Z"/><path class="cls-1" d="M16.05,58.09a10.54,10.54,0,0,0-2.57-1.51c-.92-.38-1.87-.73-2.82-1S8.8,54.91,7.9,54.6a10.47,10.47,0,0,1-2.25-1.1A5.14,5.14,0,0,1,4.14,52a3.84,3.84,0,0,1-.54-2.14,5,5,0,0,1,.39-2A4.64,4.64,0,0,1,5.1,46.27,5.24,5.24,0,0,1,7,45.15a7.48,7.48,0,0,1,2.63-.42,7.51,7.51,0,0,1,2.52.36,9.92,9.92,0,0,1,1.74.82c.57.34,1.82,1.27,1.83,1.28l1.12.84,0-3.65L16.72,44l-.24-.21A7.18,7.18,0,0,0,14,42.32a12,12,0,0,0-4.45-.79,10.71,10.71,0,0,0-4,.7,9,9,0,0,0-2.95,1.86A8,8,0,0,0,.82,46.8,8.35,8.35,0,0,0,.2,50a7.82,7.82,0,0,0,.72,3.53,7.21,7.21,0,0,0,1.89,2.37A10.36,10.36,0,0,0,5.4,57.37c.92.38,1.87.72,2.82,1s1.86.6,2.75.91a10.76,10.76,0,0,1,2.26,1.08,5,5,0,0,1,1.5,1.5,4.21,4.21,0,0,1,.54,2.25,6.84,6.84,0,0,1-.46,2.49,5.67,5.67,0,0,1-1.31,2,6.42,6.42,0,0,1-2.14,1.33,8.29,8.29,0,0,1-2.93.49,9.2,9.2,0,0,1-2.15-.23,9.53,9.53,0,0,1-1.67-.58,7.88,7.88,0,0,1-1.27-.74l-.27-.2c-.33-.24-.69-.5-.9-.68s-1.06-.81-1.06-.81L0,66.37v4.09L.59,71A9.52,9.52,0,0,0,3,72.47a12.17,12.17,0,0,0,5.42,1.12,11.51,11.51,0,0,0,4.32-.76A9.57,9.57,0,0,0,16,70.74a9.24,9.24,0,0,0,2-3.13,10.51,10.51,0,0,0,.69-3.81A7.33,7.33,0,0,0,18,60.4,7.12,7.12,0,0,0,16.05,58.09Z"/><path class="cls-1" d="M51.28,67.55c-.34.26-.66.47-1,.73l-.44.29a10,10,0,0,1-1.84,1,10.76,10.76,0,0,1-2.17.59,16.23,16.23,0,0,1-2.76.21,11.63,11.63,0,0,1-4.49-.87A10.34,10.34,0,0,1,35,67a11.59,11.59,0,0,1-2.38-4,15.8,15.8,0,0,1-.87-5.44,15.18,15.18,0,0,1,.88-5.34,11.48,11.48,0,0,1,2.43-4,10.52,10.52,0,0,1,3.7-2.53,12.4,12.4,0,0,1,4.75-.89A13.49,13.49,0,0,1,46,45a12.67,12.67,0,0,1,2,.52,8.62,8.62,0,0,1,1.42.66l.39.24c.35.21.73.43.94.58s1,.67,1,.67l1.06.68,0-3.75-.25-.21a4.61,4.61,0,0,0-.69-.51l-.25-.16a12.9,12.9,0,0,0-2.34-1.2,14.06,14.06,0,0,0-2.66-.73,17.65,17.65,0,0,0-3.12-.26,16.34,16.34,0,0,0-6.23,1.17A14,14,0,0,0,32.39,46a14.8,14.8,0,0,0-3.16,5.07,18.21,18.21,0,0,0-1.12,6.48,19.25,19.25,0,0,0,1.08,6.56,14.87,14.87,0,0,0,3,5.07,13.49,13.49,0,0,0,4.69,3.27,15.35,15.35,0,0,0,6,1.14,18.06,18.06,0,0,0,3.56-.32,14.82,14.82,0,0,0,3-.91A13.4,13.4,0,0,0,52,70.93l.52-.36a1.56,1.56,0,0,0,.47-.45l.12-.17V66L52,67Z"/><polygon class="cls-1" points="66.11 73.25 85.48 73.25 85.48 70.06 69.69 70.06 69.69 58.95 82.83 58.95 82.83 55.8 69.69 55.8 69.69 45.06 85.48 45.06 85.48 41.87 66.11 41.87 66.11 73.25"/><polygon class="cls-1" points="118.76 65.44 97.52 40.67 97.52 73.25 100.8 73.25 100.8 49.87 122.06 74.42 122.06 41.87 118.76 41.87 118.76 65.44"/><polygon class="cls-1" points="132.22 45.11 142.82 45.11 142.82 73.25 146.37 73.25 146.37 45.11 156.9 45.11 156.9 41.87 132.22 41.87 132.22 45.11"/><path class="cls-1" d="M214.79,41.87a1.39,1.39,0,0,0-.91.3,1.87,1.87,0,0,0-.49.56l-8.56,13.78c-.11.18-.21.35-.3.52-.09-.17-.19-.34-.3-.52l-8.6-13.8a1.93,1.93,0,0,0-.5-.55,1.43,1.43,0,0,0-.9-.29h-3.15l11.65,18.51V73.25h3.58V60.38L218,41.87Z"/><path class="cls-1" d="M181.68,58.09a10.8,10.8,0,0,0-2.58-1.51c-.92-.38-1.87-.73-2.82-1s-1.86-.63-2.75-.94a10.33,10.33,0,0,1-2.26-1.1,5.39,5.39,0,0,1-1.51-1.5,3.92,3.92,0,0,1-.53-2.14,5,5,0,0,1,.38-2,4.77,4.77,0,0,1,1.11-1.63,5.24,5.24,0,0,1,1.85-1.12,8.74,8.74,0,0,1,5.16-.06,9.83,9.83,0,0,1,1.73.82c.58.34,1.82,1.27,1.84,1.28l1.12.84,0-3.65,0-.36-.25-.21a7.22,7.22,0,0,0-2.45-1.49,12.08,12.08,0,0,0-4.45-.79,10.71,10.71,0,0,0-4,.7,9,9,0,0,0-3,1.86,7.88,7.88,0,0,0-1.83,2.71,8.18,8.18,0,0,0-.63,3.16,7.82,7.82,0,0,0,.72,3.53,7.24,7.24,0,0,0,1.9,2.37A10.12,10.12,0,0,0,171,57.37c.92.38,1.87.72,2.82,1s1.86.6,2.75.91a10.76,10.76,0,0,1,2.26,1.08,4.88,4.88,0,0,1,1.5,1.5,4.19,4.19,0,0,1,.54,2.25,6.6,6.6,0,0,1-.46,2.49,5.53,5.53,0,0,1-1.31,2A6.37,6.37,0,0,1,177,69.91a8.35,8.35,0,0,1-2.94.49,9.17,9.17,0,0,1-2.14-.23,9.66,9.66,0,0,1-1.68-.58,8.34,8.34,0,0,1-1.27-.74l-.27-.2c-.32-.23-.69-.5-.9-.68s-1.06-.81-1.06-.81l-1.1-.79v4.09l.6.49a9.24,9.24,0,0,0,2.36,1.52A12.17,12.17,0,0,0,174,73.59a11.6,11.6,0,0,0,4.33-.76,9.43,9.43,0,0,0,3.24-2.09,9.09,9.09,0,0,0,2-3.13,10.51,10.51,0,0,0,.69-3.81,7.33,7.33,0,0,0-.72-3.4A7.22,7.22,0,0,0,181.68,58.09Z"/></svg>